<svg width="452" height="433" viewBox="0 0 452 433" fill="none" xmlns="http://www.w3.org/2000/svg">
<path d="M452 216.5C452 259.234 438.757 300.793 413.708 336.686C410.304 341.565 404.711 344.201 399.014 344.201C395.641 344.201 392.23 343.279 389.216 341.347C381.109 336.157 378.933 325.652 384.351 317.885C405.507 287.575 416.687 252.518 416.687 216.5C416.687 201.023 414.666 185.652 410.68 170.819C408.249 161.774 413.935 152.55 423.377 150.221C432.826 147.896 442.447 153.34 444.878 162.385C449.603 179.973 452 198.179 452 216.5ZM324.64 372.866C294.983 390.074 260.874 399.172 226 399.172C120.856 399.172 35.3125 317.225 35.3125 216.5C35.3125 115.775 120.856 33.8281 226 33.8281C264.93 33.8281 302.363 44.9874 334.258 66.1003C342.279 71.4091 353.276 69.4831 358.822 61.7991C364.363 54.1151 362.356 43.5801 354.332 38.2681C316.509 13.2339 272.134 0 226 0C165.634 0 108.879 22.5201 66.1936 63.4112C23.5083 104.302 0 158.672 0 216.5C0 274.328 23.5083 328.698 66.1936 369.589C108.879 410.48 165.634 433 226 433C267.326 433 307.763 422.211 342.938 401.798C351.28 396.959 353.945 386.559 348.893 378.568C343.838 370.577 332.982 368.026 324.64 372.866ZM227.703 265.544C224.907 265.65 222.296 264.698 220.268 262.849L127.797 178.856C120.721 172.428 109.545 172.712 102.837 179.491C96.1265 186.269 96.423 196.976 103.499 203.402L195.953 287.38C204.492 295.157 215.537 299.379 227.241 299.379C227.869 299.379 228.496 299.366 229.124 299.343C241.521 298.864 252.908 293.723 261.185 284.867C261.395 284.645 261.595 284.417 261.792 284.183L448.103 62.1856C454.213 54.9046 453.007 44.2574 445.406 38.4068C437.809 32.553 426.691 33.7092 420.58 40.9902L234.635 262.554C232.807 264.381 230.359 265.442 227.703 265.544Z" fill="black"/>
</svg>
