<svg id="Capa_1" enable-background="new 0 0 512 512" height="512" viewBox="0 0 512 512" width="512" xmlns="http://www.w3.org/2000/svg"><g><g><g><path d="m256 20.775c-68.079 0-129.951 5.914-175.809 49.233-49.379 46.646-80.191 112.722-80.191 185.992 0 38.01 8.292 74.084 23.167 106.513 14.325 31.23 120.296 126.556 156.836 137.894 24.011 7.45 49.535 11.463 75.997 11.463 24.148 0 47.515-3.342 69.664-9.588 37.616-10.608 58.217-43.093 86.66-68.313 26.233-23.261 61.152-38.326 76.075-70.513 15.147-32.672 23.601-69.077 23.601-107.456 0-73.337-30.869-139.467-80.328-186.12-45.844-43.243-107.661-49.105-175.672-49.105zm-41.451 420.728c0 12.979-12.731 22.086-25.053 17.991-3.201-1.064-6.367-2.202-9.498-3.414 0 0-59.635-8.417-78.327-25.104-19.388-17.307-33.29-75.685-33.29-75.685-1.855-3.634-3.606-7.33-5.252-11.082-4.97-11.337 2.277-24.301 14.51-26.221l32.173-5.049 65.488-34.62c19.376-3.041 53.569 9.905 53.569 29.508l-14.322 90.089v43.587zm231.782-93.37c-1.247 2.692-2.549 5.353-3.905 7.982 0 0-13.303 57.776-32.156 74.758-20.291 18.277-84.601 27.282-84.601 27.282-2.67.947-5.364 1.841-8.082 2.681-12.264 3.793-24.717-5.267-24.717-18.098v-44.821l-22.791-61.671c0-19.823 26.477-49.701 46.015-46.293l86.287 26.449 29.913 5.218c12.22 2.132 19.249 15.261 14.037 26.513zm-3.246-109.174-69.998-28.223-234.051-3.203-70.266 27.367c-10.494 4.087-21.3-5.062-19.082-16.098 9.017-44.854 32.382-84.584 65.086-114.185 0 0 38.467-77.059 140.844-77.059 100.31 0 141.104 77.3 141.104 77.3 33.622 30.537 57.327 71.799 65.649 118.322 1.974 11.039-8.88 19.975-19.286 15.779z" fill="#004281"/><g><path d="m160.074 199.339-21.038 8.194-29.221 105.407 67.845-10.647c19.376-3.041 36.89 11.931 36.89 31.534v64.091h78.321v-62.644c0-19.823 17.888-34.853 37.426-31.445l72.084 12.573-29.293-105.667-25.508-10.285c-60.08-24.223-127.143-24.621-187.506-1.111z" fill="#528fd8"/></g><ellipse cx="256.098" cy="254.297" fill="#ffe177" rx="41.237" ry="41.216"/><path d="m256.098 213.081c-7.508 0-14.54 2.015-20.604 5.519 12.33 7.125 20.633 20.438 20.633 35.697s-8.303 28.572-20.633 35.697c6.063 3.504 13.096 5.519 20.604 5.519 22.775 0 41.237-18.453 41.237-41.216s-18.463-41.216-41.237-41.216z" fill="#fece85"/><g fill="#004281"><path d="m178.777 244.205-22.882 5.139c-4.163.935-6.781 5.068-5.846 9.232.807 3.594 3.996 6.035 7.532 6.035.56 0 1.13-.061 1.7-.189l22.882-5.139c4.163-.935 6.781-5.068 5.846-9.232-.935-4.163-5.065-6.778-9.232-5.846z"/><path d="m355.341 249.345-22.882-5.139c-4.166-.933-8.296 1.683-9.231 5.846-.936 4.163 1.682 8.297 5.845 9.232l22.882 5.139c.57.128 1.14.189 1.7.189 3.535 0 6.724-2.442 7.531-6.035.936-4.164-1.682-8.297-5.845-9.232z"/></g></g><path d="m431.672 69.88c-33.575-31.669-75.723-43.279-122.59-47.231 71.976 31.041 126.733 94.399 145.997 171.801 3.08 9.308 5.533 18.899 7.291 28.729.533 2.981.125 5.806-.951 8.263.776 8.083 1.186 16.272 1.186 24.558 0 29.772-5.139 58.339-14.549 84.885-.076 2.419-.625 4.875-1.724 7.248-1.247 2.692-2.549 5.353-3.905 7.982 0 0-13.303 57.776-32.156 74.758-7.38 6.648-20.585 12.068-34.4 16.275-41.501 36.35-94.935 59.405-153.666 62.509 11.059 1.458 22.339 2.213 33.796 2.213h-.001c24.148 0 47.515-3.342 69.664-9.588 37.616-10.608 58.218-43.093 86.66-68.313 26.233-23.261 61.152-38.326 76.075-70.513 15.147-32.672 23.601-69.077 23.601-107.456 0-73.337-30.869-139.468-80.328-186.12z" fill="#00366d"/><g fill="#8ac9fe"><path d="m255.618 50.292c54.268 0 103.785 20.686 141.096 54.573l34.949-34.976c-45.844-43.243-107.652-69.76-175.663-69.76-68.078 0-129.942 26.568-175.8 69.887l34.577 34.603c37.282-33.744 86.7-54.327 140.841-54.327z"/><path d="m488.382 363.449-45.971-7.342c-24.361 47.224-66.112 84.072-116.748 102.031v44.14c72.31-20.393 131.617-71.746 162.719-138.829z"/><path d="m68.394 355.287-45.215 7.222c30.077 65.572 87.055 116.249 156.825 137.898v-44.337c-48.417-18.737-88.202-54.913-111.61-100.783z"/></g></g><g fill="#60b7ff"><path d="m405.738 95.834 25.925-25.945c-45.844-43.243-107.652-69.76-175.663-69.76-11.432 0-22.683.766-33.717 2.218 73.99 3.933 139.57 39.531 183.455 93.487z"/><path d="m442.41 356.107c-.567 1.1-1.154 2.188-1.74 3.277-23.439 52.539-64.19 95.649-115.008 122.091v20.803c72.31-20.392 131.617-71.746 162.719-138.828z"/></g></g></svg>